<?xml version="1.0" standalone="no"?>
<!DOCTYPE svg PUBLIC "-//W3C//DTD SVG 20010904//EN"
 "http://www.w3.org/TR/2001/REC-SVG-20010904/DTD/svg10.dtd">
<svg version="1.0" xmlns="http://www.w3.org/2000/svg"
 width="200.000000pt" height="220.000000pt" viewBox="0 0 200.000000 220.000000"
 preserveAspectRatio="xMidYMid meet">

<g transform="translate(0.000000,220.000000) scale(0.100000,-0.100000)"
fill="#000000" stroke="none">
<path d="M0 1100 l0 -1100 425 0 c400 0 424 1 419 18 -5 16 -5 16 6 -1 18 -28
135 -22 124 7 -3 7 2 19 11 26 14 11 18 11 25 1 5 -9 17 -11 36 -7 l28 7 -19
-23 c-14 -16 -11 -15 11 5 26 24 33 26 43 13 7 -9 8 -17 2 -20 -5 -3 -11 0
-14 6 -3 7 -4 3 -4 -9 1 -21 2 -21 27 -4 20 14 31 15 53 7 20 -7 33 -7 46 1
16 10 18 9 14 -8 -5 -19 4 -19 381 -19 l386 0 0 1100 0 1100 -1000 0 -1000 0
0 -1100z m845 539 c17 -7 34 -11 38 -10 5 1 5 -3 2 -9 -4 -6 0 -17 8 -23 9 -7
18 -23 20 -37 4 -22 4 -21 6 6 0 16 -5 36 -11 44 -7 7 -1 5 14 -6 15 -10 29
-26 32 -34 3 -8 15 -31 27 -50 12 -19 27 -54 34 -78 12 -39 12 -44 -3 -48 -9
-3 -29 -11 -44 -19 -25 -12 -27 -12 -31 8 -3 21 -4 21 -11 2 -4 -11 -18 -40
-31 -65 -22 -43 -23 -48 -10 -100 19 -77 40 -147 60 -200 21 -58 13 -108 -20
-120 -38 -14 -126 -15 -134 -1 -5 7 -6 24 -5 39 3 21 1 19 -7 -7 -15 -51 12
-85 72 -89 26 -2 49 -10 56 -19 10 -12 16 -13 26 -5 11 9 25 8 60 -4 58 -20
75 -40 25 -30 -23 4 -40 1 -53 -9 -11 -8 -36 -15 -55 -15 -19 0 -51 -10 -70
-21 -20 -12 -55 -23 -79 -24 -25 -1 -47 -7 -49 -13 -2 -7 -10 -12 -17 -12 -7
0 -15 -4 -17 -9 -6 -17 -56 35 -82 85 -15 27 -30 56 -35 64 -5 8 -19 39 -32
67 -12 29 -31 60 -41 70 -10 9 -18 30 -18 47 0 17 -4 37 -8 44 -5 7 -7 26 -4
42 5 38 34 40 66 5 43 -46 93 -52 172 -19 32 14 64 52 64 79 0 8 5 15 10 15 6
0 10 -11 10 -25 0 -28 17 -34 22 -7 4 19 -14 117 -26 144 -15 34 -87 41 -232
23 -30 -3 -32 -1 -38 34 -3 21 1 62 8 92 8 30 13 56 11 58 -2 2 12 26 31 53
19 28 34 54 34 59 0 5 6 9 14 9 8 0 17 8 20 17 5 13 9 14 15 5 6 -10 14 -9 37
2 33 18 121 15 169 -5z m225 -309 c17 -10 16 -12 -29 -28 -43 -15 -49 -10 -22
17 23 23 30 25 51 11z m-368 -78 c17 -17 5 -24 -47 -28 -26 -1 -64 -11 -85
-21 -37 -19 -38 -19 -49 0 -10 15 -9 22 4 37 10 11 27 21 39 24 36 8 126 0
138 -12z m418 5 c0 -7 -6 -22 -14 -32 -12 -17 -13 -16 -12 13 1 30 26 48 26
19z m-90 -32 c7 -8 22 -15 34 -16 20 0 20 -1 1 -8 -20 -8 -65 13 -65 30 0 14
16 11 30 -6z m-330 -54 c0 -5 -7 -14 -15 -21 -16 -14 -18 -10 -9 14 6 17 24
22 24 7z m-76 -50 c-7 -7 -44 31 -38 41 3 4 14 -2 24 -14 10 -13 16 -25 14
-27z m479 21 c40 11 83 21 97 22 l25 1 -3 -89 c-2 -77 -7 -99 -36 -160 -34
-74 -54 -91 -112 -98 l-31 -4 3 50 c2 52 -28 167 -67 254 -10 23 -19 45 -19
48 0 2 16 -6 36 -20 l36 -24 71 20z m-730 -159 c6 -9 6 -13 -1 -13 -10 0 -33
53 -31 74 0 6 5 -2 11 -19 6 -16 15 -36 21 -42z m562 -293 c-3 -5 -11 -10 -16
-10 -6 0 -7 5 -4 10 3 6 11 10 16 10 6 0 7 -4 4 -10z m-131 -35 c10 -26 -4
-46 -28 -39 -29 9 -29 9 -16 33 13 24 35 28 44 6z m234 -71 c15 -4 22 -14 22
-30 0 -13 -5 -24 -11 -24 -5 0 -35 -12 -65 -26 -65 -31 -122 -27 -137 10 -10
26 4 38 71 58 63 18 86 21 120 12z m148 -469 c-7 -27 -26 -30 -34 -5 -3 9 1
11 12 7 8 -3 15 -3 15 1 -3 17 2 35 7 29 4 -3 3 -18 0 -32z m-26 -30 c0 -3 -8
-14 -17 -25 -13 -14 -19 -16 -25 -7 -12 19 -9 27 7 21 8 -4 15 -1 15 5 0 6 5
11 10 11 6 0 10 -2 10 -5z"/>
</g>
</svg>
