<?xml version="1.0" standalone="no"?>
<!DOCTYPE svg PUBLIC "-//W3C//DTD SVG 20010904//EN"
 "http://www.w3.org/TR/2001/REC-SVG-20010904/DTD/svg10.dtd">
<svg version="1.0" xmlns="http://www.w3.org/2000/svg"
 width="220.000000pt" height="460.000000pt" viewBox="0 0 220.000000 460.000000"
 preserveAspectRatio="xMidYMid meet">

<g transform="translate(0.000000,460.000000) scale(0.100000,-0.100000)"
fill="#000000" stroke="none">
<path d="M839 4006 c-58 -13 -149 -60 -149 -76 0 -5 -7 -7 -15 -4 -8 4 -15 2
-15 -2 0 -5 -7 -18 -15 -28 -14 -19 -15 -19 -35 -1 -17 16 -20 16 -15 3 5 -13
2 -15 -15 -11 -13 3 -19 11 -16 19 3 8 1 14 -4 14 -6 0 -10 -4 -10 -10 0 -5
-10 -8 -22 -6 -18 3 -23 9 -21 32 1 16 0 23 -3 16 -4 -7 -17 -18 -31 -23 -19
-7 -24 -15 -21 -33 5 -22 1 -24 -58 -29 -48 -3 -72 -12 -108 -36 -25 -18 -51
-42 -57 -54 -9 -15 -3 -12 20 11 39 39 88 65 106 58 8 -3 15 0 17 5 4 12 78 2
78 -10 0 -4 -15 -13 -34 -19 -41 -15 -153 -127 -181 -181 -11 -21 -30 -56 -42
-78 -14 -26 -19 -44 -12 -54 7 -11 9 -9 9 9 0 13 4 21 8 18 10 -6 3 -66 -8
-66 -4 0 -11 -10 -14 -22 -6 -21 -7 -21 -17 -6 -7 12 -7 24 1 37 15 29 12 39
-5 14 -17 -25 -16 -83 2 -76 13 5 14 7 -22 -107 -13 -43 -14 -60 -6 -80 l11
-25 -4 25 c-3 14 -2 39 3 55 l8 30 20 -40 c12 -22 24 -63 28 -90 7 -47 28
-103 24 -65 -4 43 4 38 35 -21 19 -36 43 -99 55 -142 21 -73 71 -177 71 -148
0 8 2 12 5 9 13 -13 -15 -58 -36 -58 -85 0 -251 -73 -309 -136 l-40 -44 0
-445 0 -445 464 0 c434 0 465 1 469 18 4 16 5 16 6 0 1 -15 11 -18 65 -18 59
0 65 2 68 23 3 19 9 22 51 23 40 2 46 0 36 -12 -17 -20 -6 -17 21 6 13 12 29
18 36 16 9 -3 11 1 7 11 -5 13 -2 15 11 10 10 -4 20 -7 24 -7 3 0 -10 -16 -29
-37 l-34 -36 35 25 c30 22 37 24 48 12 7 -8 26 -14 42 -14 17 0 30 -4 30 -10
0 -7 148 -10 425 -10 l425 0 0 144 0 143 -45 42 c-25 23 -57 46 -71 51 -14 6
-22 15 -19 21 4 5 -5 28 -20 49 -24 35 -26 43 -16 71 6 18 11 55 11 84 0 166
-176 295 -557 411 -20 5 -16 46 20 204 25 111 30 238 13 289 -19 51 -20 65 -6
56 6 -4 10 11 10 37 0 24 3 73 7 111 6 64 7 67 32 67 26 1 26 1 -12 34 -23 21
-34 37 -27 41 5 3 7 12 4 18 -4 7 -4 9 1 5 9 -8 35 9 35 23 0 5 -8 5 -17 2
-12 -5 -15 -2 -10 10 3 9 3 17 -1 17 -5 0 -15 15 -24 33 -16 33 -88 125 -88
111 0 -4 -10 8 -22 27 -25 37 -161 112 -188 104 -8 -2 -51 12 -95 31 -61 26
-72 33 -45 30 43 -5 102 -27 126 -46 16 -13 17 -13 8 2 -5 9 -45 35 -89 59
-69 36 -90 43 -150 45 -38 2 -95 -3 -126 -10z m166 -6 c4 -7 -3 -8 -22 -4 -38
9 -42 14 -10 14 14 0 29 -5 32 -10z m253 -137 c43 -10 134 -73 107 -73 -9 0
-49 22 -55 30 -3 4 -30 19 -60 34 -30 15 -47 25 -37 22 11 -4 31 -9 45 -13z
m212 -163 c0 -15 -5 -12 -26 11 -19 22 -19 22 4 10 12 -6 22 -16 22 -21z m19
-47 c25 -31 21 -39 -9 -23 -18 10 -20 14 -9 21 10 6 8 10 -11 18 -16 6 -19 10
-8 10 9 1 26 -11 37 -26z m-594 -148 c37 -6 91 -49 109 -88 4 -7 4 2 2 18 l-4
30 29 -35 c41 -49 78 -117 88 -163 8 -32 6 -39 -7 -43 -15 -5 -52 -21 -74 -32
-3 -2 -8 7 -11 20 -4 21 -4 20 -6 -4 0 -15 -6 -30 -11 -33 -6 -4 -19 -24 -30
-45 -22 -43 -19 -64 30 -225 11 -38 25 -83 29 -100 5 -16 10 -34 12 -40 7 -21
-11 -74 -29 -84 -10 -5 -47 -11 -81 -12 -71 -3 -83 6 -75 56 4 23 3 27 -5 15
-14 -20 -13 -71 2 -91 19 -25 50 -38 79 -32 18 3 32 -1 47 -16 17 -17 24 -19
40 -9 15 9 30 7 75 -12 31 -12 56 -25 56 -27 0 -3 -17 -3 -38 1 -27 4 -45 1
-62 -11 -13 -9 -39 -16 -57 -15 -21 2 -50 -7 -78 -23 -25 -15 -57 -26 -72 -24
-29 2 -64 -9 -74 -23 -3 -5 -16 -11 -29 -13 -27 -5 -65 31 -96 93 -10 20 -24
44 -30 52 -6 8 -17 33 -24 55 -16 48 -56 115 -70 115 -6 0 -10 17 -10 38 0 21
-3 42 -7 46 -5 4 -8 25 -9 47 0 34 3 39 23 39 12 0 36 -13 53 -30 39 -38 84
-46 154 -26 56 16 85 44 101 95 8 26 21 18 27 -19 l4 -25 11 26 c14 33 -10
146 -38 174 -17 17 -34 20 -127 21 -59 0 -115 -3 -125 -8 -24 -12 -26 -10 -27
42 -1 51 3 92 15 135 9 35 66 135 77 135 4 0 5 7 2 15 -4 11 -2 13 9 10 8 -4
17 1 21 12 6 14 9 15 15 4 6 -9 14 -10 22 -5 47 30 79 34 174 19z m660 -15 c3
-5 -1 -10 -9 -10 -9 0 -16 5 -16 10 0 6 4 10 9 10 6 0 13 -4 16 -10z m-1358
-212 c-3 -8 -6 -5 -6 6 -1 11 2 17 5 13 3 -3 4 -12 1 -19z m983 -134 c0 -6 -8
-14 -17 -17 -10 -2 -26 -8 -35 -12 -22 -9 -24 8 -3 29 18 17 55 17 55 0z
m-407 -76 c10 -5 17 -11 15 -14 -2 -2 -40 -10 -83 -19 -43 -8 -88 -21 -100
-29 -19 -13 -23 -12 -34 6 -27 43 45 80 134 71 28 -3 58 -10 68 -15z m452 -17
c-10 -32 -22 -25 -17 10 3 20 8 27 14 21 6 -6 7 -19 3 -31z m-62 -31 c20 -1
20 -2 5 -11 -13 -7 -24 -5 -43 7 -26 17 -30 26 -18 37 3 4 12 -2 20 -13 8 -11
24 -20 36 -20z m-403 -59 c-5 -10 -6 -22 -2 -27 4 -5 1 -4 -7 2 -14 13 -6 58
10 49 5 -4 5 -13 -1 -24z m-82 -24 c15 -16 14 -17 -1 -11 -21 8 -39 38 -29 48
3 4 8 1 11 -6 2 -7 11 -21 19 -31z m676 12 c-3 -5 -8 -46 -10 -91 -4 -61 -13
-99 -34 -148 -38 -86 -71 -119 -117 -117 -42 3 -52 18 -46 67 3 22 -2 62 -13
96 -10 32 -18 65 -17 72 0 6 -4 12 -9 12 -5 0 -8 5 -6 12 2 6 -8 36 -23 65
-27 53 -22 68 13 37 26 -24 89 -21 193 9 49 14 82 7 69 -14z m-473 -536 c0 -5
3 -21 5 -38 3 -20 1 -25 -4 -17 -5 8 -12 13 -16 13 -36 -5 -48 13 -24 37 13
13 38 16 39 5z m263 -79 c9 -4 16 -18 16 -33 0 -24 -6 -30 -42 -41 -24 -7 -52
-18 -63 -26 -23 -16 -81 -19 -90 -4 -4 6 -10 8 -15 5 -13 -8 -22 33 -11 52 16
29 164 63 205 47z m-279 -454 c3 -5 1 -10 -4 -10 -6 0 -11 5 -11 10 0 6 2 10
4 10 3 0 8 -4 11 -10z m442 -40 c-1 -11 -5 -20 -9 -20 -10 0 -10 4 -2 24 8 22
13 20 11 -4z m-17 -41 c0 -6 -4 -7 -10 -4 -5 3 -10 11 -10 16 0 6 5 7 10 4 6
-3 10 -11 10 -16z"/>
<path d="M1220 3920 c8 -5 20 -10 25 -10 6 0 3 5 -5 10 -8 5 -19 10 -25 10 -5
0 -3 -5 5 -10z"/>
<path d="M191 3654 c0 -11 3 -14 6 -6 3 7 2 16 -1 19 -3 4 -6 -2 -5 -13z"/>
</g>
</svg>
