<?xml version="1.0" standalone="no"?>
<!DOCTYPE svg PUBLIC "-//W3C//DTD SVG 20010904//EN"
 "http://www.w3.org/TR/2001/REC-SVG-20010904/DTD/svg10.dtd">
<svg version="1.0" xmlns="http://www.w3.org/2000/svg"
 width="351.000000pt" height="417.000000pt" viewBox="0 0 351.000000 417.000000"
 preserveAspectRatio="xMidYMid meet">

<g transform="translate(0.000000,417.000000) scale(0.100000,-0.100000)"
fill="#000000" stroke="none">
<path d="M1790 4070 c-64 -10 -199 -39 -240 -51 -49 -16 -190 -98 -187 -111 1
-5 -6 -15 -16 -21 -14 -9 -19 -9 -26 2 -10 16 -34 4 -27 -14 2 -7 -10 -26 -27
-43 -28 -28 -37 -31 -77 -27 -91 9 -112 16 -107 36 6 24 -2 24 -18 2 -11 -15
-15 -15 -30 -3 -14 12 -18 12 -25 0 -12 -20 -40 5 -40 36 0 29 -14 38 -30 18
-7 -8 -19 -13 -27 -10 -38 15 -59 -45 -33 -94 14 -26 2 -30 -54 -18 -99 21
-243 -32 -340 -125 l-51 -49 45 35 c79 61 183 108 247 113 42 3 51 1 33 -5
-30 -11 -20 -13 42 -11 55 2 91 -7 83 -21 -4 -5 -15 -9 -26 -9 -11 0 -50 -15
-87 -34 -53 -27 -87 -55 -160 -135 -131 -140 -150 -166 -188 -247 -18 -40 -36
-73 -41 -75 -4 -2 -37 -62 -73 -132 l-65 -128 18 -32 c18 -30 18 -32 0 -45
-16 -12 -15 -13 11 -6 26 6 28 5 23 -12 -3 -10 -11 -39 -18 -64 -6 -25 -22
-76 -35 -113 -27 -76 -31 -164 -10 -212 11 -27 12 -21 9 55 -3 58 0 97 10 125
l15 40 7 -38 c4 -20 11 -40 16 -43 14 -8 49 -94 49 -120 0 -12 4 -25 9 -28 4
-3 11 -36 15 -73 7 -81 15 -113 27 -113 5 0 9 18 9 40 0 39 16 55 25 25 9 -28
15 -40 45 -90 65 -109 81 -149 115 -282 20 -76 47 -158 60 -183 54 -98 86
-173 83 -193 -3 -18 -16 -23 -108 -38 -255 -43 -430 -122 -563 -253 l-57 -56
0 -620 0 -620 1755 0 1755 0 0 619 0 618 -117 53 c-115 51 -280 109 -415 145
l-68 18 0 36 c1 89 20 212 39 250 12 22 21 57 21 78 0 21 7 63 16 93 8 30 19
109 24 175 5 66 12 149 16 185 6 58 3 74 -20 130 -30 71 -50 240 -28 226 7 -4
13 -26 14 -49 0 -23 4 12 8 79 4 66 13 130 19 142 8 15 10 47 5 97 l-7 75 50
0 c27 0 52 3 56 6 6 7 -110 114 -124 114 -17 0 -9 29 11 40 24 13 26 30 3 30
-14 0 -14 3 -5 12 10 10 15 10 22 -2 7 -12 12 -11 29 4 12 11 21 31 21 45 -1
24 -1 25 -15 7 -18 -23 -38 -11 -31 19 4 17 1 25 -11 30 -10 3 -33 36 -50 73
-18 37 -42 78 -54 92 -20 24 -20 24 -14 3 4 -14 2 -23 -4 -23 -6 0 -11 4 -11
9 0 5 -16 18 -36 30 -19 12 -32 26 -29 31 4 6 12 4 21 -5 9 -8 22 -15 30 -15
11 0 9 7 -8 30 -12 17 -25 30 -30 30 -4 0 -8 12 -8 26 0 22 -2 24 -15 14 -20
-16 -31 -7 -60 51 -25 49 -104 118 -136 119 -8 0 -19 4 -25 9 -5 4 -49 25 -99
45 -89 37 -166 86 -135 86 9 0 58 -13 110 -30 52 -16 96 -28 98 -26 3 4 -84
34 -230 81 -58 18 -106 42 -145 71 -58 43 -137 74 -244 94 -57 11 -91 11 -159
0z m145 -25 l40 -14 -55 4 c-30 3 -68 9 -85 14 -28 9 -28 9 15 9 25 0 63 -6
85 -13z m-178 -41 c-3 -3 -12 -4 -19 -1 -8 3 -5 6 6 6 11 1 17 -2 13 -5z m413
-66 c19 -6 42 -16 50 -23 8 -7 26 -18 40 -25 23 -12 24 -12 11 4 -12 15 -12
16 5 10 37 -14 143 -95 123 -94 -17 1 -142 46 -218 79 -52 23 -100 41 -106 41
-6 0 -20 7 -31 15 -17 14 -14 15 36 9 30 -3 71 -10 90 -16z m-1220 -121 c0 -5
-4 -5 -10 -2 -5 3 -10 14 -10 23 0 15 2 15 10 2 5 -8 10 -19 10 -23z m-31 -27
c20 -38 15 -55 -7 -27 -12 14 -27 67 -19 67 3 0 14 -18 26 -40z m1520 -21 c24
-10 50 -19 58 -19 22 0 113 -41 113 -51 0 -13 -17 -11 -25 2 -4 6 -14 8 -21 5
-8 -3 -36 5 -62 17 -26 13 -72 36 -102 50 -60 30 -32 26 39 -4z m221 -101 c71
-48 38 -66 -39 -21 -39 23 -43 27 -26 34 29 11 29 11 65 -13z m170 -228 c0 -5
-2 -10 -4 -10 -3 0 -8 5 -11 10 -3 6 -1 10 4 10 6 0 11 -4 11 -10z m28 -42 c9
-9 12 -9 12 0 0 20 19 13 36 -13 18 -27 14 -42 -8 -29 -7 5 -19 9 -27 9 -7 0
-20 10 -28 23 -16 23 -5 30 15 10z m-2337 -15 c-20 -37 -40 -59 -41 -44 0 8
10 25 22 38 26 27 32 29 19 6z m2451 -74 c11 -19 13 -31 6 -35 -6 -4 -15 1
-20 10 -5 9 -17 16 -26 16 -18 0 -42 18 -42 31 0 4 15 7 33 7 26 0 36 -6 49
-29z m-2599 -256 c-3 -32 -12 -65 -20 -73 -14 -13 -15 -10 -10 31 6 46 23 99
31 99 3 0 2 -26 -1 -57z m-47 -58 c-9 -67 -15 -90 -26 -90 -8 0 -19 12 -24 27
-8 22 -3 39 23 93 18 37 34 65 35 63 2 -2 -2 -43 -8 -93z m1302 61 c27 -10 52
-12 75 -6 25 5 39 4 49 -6 7 -7 33 -15 57 -17 28 -2 49 -10 58 -23 11 -15 15
-16 22 -5 6 9 11 10 15 2 4 -6 2 -11 -3 -11 -18 0 -13 -17 14 -47 l24 -28 2
25 c1 18 6 10 18 -27 16 -50 39 -89 28 -48 -3 11 -8 38 -11 60 -5 33 -4 37 6
24 7 -8 21 -18 31 -22 9 -3 17 -13 17 -22 0 -8 5 -15 10 -15 6 0 10 -6 10 -13
0 -8 9 -22 20 -32 11 -10 18 -20 15 -23 -2 -3 5 -16 15 -30 11 -13 20 -31 20
-39 0 -18 25 -44 34 -36 3 4 6 1 6 -6 0 -6 9 -31 21 -54 11 -23 22 -63 24 -89
3 -26 6 -52 7 -59 2 -7 -14 -19 -35 -26 -20 -7 -61 -26 -91 -42 -29 -17 -56
-27 -60 -24 -3 4 -6 24 -6 45 0 21 -4 38 -10 38 -5 0 -10 -23 -10 -51 0 -44
-4 -54 -30 -77 -16 -15 -30 -34 -30 -44 0 -10 -4 -18 -9 -18 -5 0 -11 -8 -14
-17 -3 -10 -13 -37 -21 -60 -14 -39 -14 -46 3 -100 10 -32 22 -74 26 -93 4
-19 18 -58 30 -87 13 -28 21 -54 17 -57 -3 -3 0 -6 7 -6 7 0 10 -4 7 -9 -8
-12 47 -212 82 -302 20 -51 -10 -142 -58 -174 -28 -18 -93 -34 -109 -26 -33
17 -89 20 -108 6 -26 -21 -53 -18 -80 7 -24 22 -32 81 -13 93 13 8 13 35 1 35
-5 0 -17 -23 -26 -51 -23 -67 -10 -113 45 -163 41 -37 50 -39 146 -36 42 1 56
-3 78 -23 14 -13 26 -29 26 -36 0 -15 4 -14 46 8 39 21 81 19 119 -5 11 -7 22
-13 25 -12 18 4 80 -26 80 -39 0 -13 -8 -15 -47 -9 -43 6 -53 3 -106 -30 -56
-34 -62 -36 -118 -30 -58 7 -62 6 -147 -42 -89 -50 -129 -65 -136 -53 -7 10
-88 3 -100 -9 -5 -5 -20 -10 -33 -10 -14 0 -23 -6 -23 -15 0 -9 -12 -20 -27
-26 -14 -5 -33 -17 -40 -27 -11 -12 -16 -14 -19 -4 -3 6 -11 12 -17 12 -20 0
-103 96 -127 146 -13 27 -32 61 -42 76 -10 14 -18 32 -18 40 0 8 -11 25 -25
38 -14 13 -25 31 -25 41 0 9 -7 22 -15 29 -9 7 -14 19 -11 25 2 7 -11 43 -30
81 -19 37 -34 75 -34 85 0 9 -18 31 -39 49 -40 35 -58 75 -65 145 -2 22 -7 48
-11 58 -6 15 -10 109 -6 155 1 17 53 15 77 -3 10 -8 27 -15 37 -15 9 0 17 -3
17 -7 0 -18 57 -71 90 -84 71 -29 219 -13 320 34 34 15 70 48 70 62 0 7 9 23
19 37 11 13 23 38 27 54 10 41 25 59 35 42 5 -7 9 -25 9 -40 0 -31 11 -41 34
-32 21 8 21 88 1 164 -8 30 -15 72 -15 92 0 27 -6 41 -20 50 -11 7 -20 21 -20
30 0 10 -7 18 -15 18 -8 0 -15 4 -15 9 0 5 -35 17 -77 26 -66 15 -87 16 -145
5 -37 -6 -82 -10 -100 -9 -18 2 -40 -1 -48 -6 -9 -5 -15 -4 -18 3 -6 19 -64
14 -106 -9 -21 -11 -40 -18 -43 -16 -10 11 -11 83 0 95 8 10 7 16 -2 22 -8 4
-10 13 -6 19 4 7 1 18 -5 26 -9 11 -10 22 -2 42 6 16 10 43 10 60 -1 19 7 42
17 53 16 18 17 20 2 14 -22 -8 -21 -2 3 26 11 13 21 36 21 52 2 42 3 43 22 62
9 10 14 22 11 28 -4 7 -2 8 4 4 7 -4 14 3 18 18 3 13 12 27 19 30 7 2 16 18
20 35 4 17 13 35 22 39 8 5 14 12 14 15 -4 29 2 36 31 39 23 2 36 11 45 28 7
14 13 19 13 11 0 -8 6 -11 15 -7 8 3 15 1 15 -5 0 -12 39 7 63 32 9 10 24 16
32 13 8 -4 21 -2 28 4 28 23 73 26 125 8z m1446 -41 c26 -19 15 -29 -23 -20
-30 6 -38 15 -24 28 10 11 26 8 47 -8z m-2710 -401 c6 -24 2 -43 -8 -33 -11
10 -17 59 -8 59 5 0 13 -12 16 -26z m1959 -278 c33 -15 17 -31 -55 -54 -79
-25 -106 -18 -73 18 38 42 85 55 128 36z m-918 -136 c62 -9 125 -27 125 -35 0
-19 -17 -35 -35 -35 -13 0 -26 -4 -29 -9 -3 -4 -34 -11 -68 -14 -71 -7 -166
-30 -207 -50 -43 -21 -102 2 -109 44 -1 10 12 23 35 35 21 10 40 20 43 22 2 2
-2 7 -9 12 -9 5 6 12 45 20 32 7 64 14 69 15 20 6 71 4 140 -5z m1011 -28 c-3
-37 -26 -82 -43 -82 -11 0 -10 7 2 37 9 20 13 43 10 51 -7 19 3 32 19 26 8 -3
13 -17 12 -32z m-126 4 c0 -3 -4 -8 -10 -11 -5 -3 -10 -1 -10 4 0 6 5 11 10
11 6 0 10 -2 10 -4z m-43 -84 c26 -15 12 -22 -30 -15 -34 5 -37 8 -37 38 0 44
10 50 31 16 10 -16 26 -34 36 -39z m49 -38 c-22 -8 -49 -11 -60 -7 -20 6 -20
7 4 14 14 4 41 7 60 7 l35 1 -39 -15z m-796 -73 c0 -19 -46 -68 -55 -59 -3 3
0 26 7 51 10 40 14 44 30 36 10 -5 18 -18 18 -28z m-115 19 c3 -5 1 -10 -4
-10 -6 0 -11 5 -11 10 0 6 2 10 4 10 3 0 8 -4 11 -10z m-105 -24 c0 -8 12 -28
26 -45 29 -35 13 -42 -23 -12 -23 19 -32 71 -13 71 6 0 10 -6 10 -14z m901
-55 c13 -1 27 -7 30 -13 3 -5 10 -8 15 -7 5 1 17 -1 26 -5 9 -4 27 -2 40 5 13
7 43 15 68 17 25 2 55 10 67 18 12 8 31 14 42 14 11 0 42 7 68 16 60 21 112
22 124 4 14 -22 -1 -164 -20 -183 -6 -6 -5 -15 5 -25 12 -11 14 -27 9 -61 -3
-25 -8 -59 -10 -76 -2 -16 -14 -55 -25 -85 -12 -30 -26 -68 -30 -84 -5 -16
-16 -36 -24 -45 -7 -9 -17 -29 -20 -46 -7 -32 -48 -85 -66 -85 -5 0 -10 -5
-10 -11 0 -7 -9 -20 -21 -30 -16 -14 -37 -18 -94 -17 l-74 0 -14 36 c-10 25
-12 45 -6 66 13 46 11 128 -5 158 -8 14 -19 50 -25 78 -6 29 -18 61 -26 73 -8
12 -15 36 -15 54 0 19 -6 36 -16 41 -11 6 -15 17 -11 31 5 21 -27 92 -45 99
-4 2 -8 11 -8 20 -1 10 -7 35 -15 56 -19 55 -7 65 30 25 17 -19 42 -36 56 -38z
m-771 -25 c0 -11 -19 -15 -25 -6 -3 5 1 10 9 10 9 0 16 -2 16 -4z m870 -746
c0 -5 -4 -10 -9 -10 -6 0 -13 5 -16 10 -3 6 1 10 9 10 9 0 16 -4 16 -10z
m-280 -220 c0 -5 -4 -10 -10 -10 -5 0 -10 5 -10 10 0 6 5 10 10 10 6 0 10 -4
10 -10z m-276 -81 c5 -14 6 -38 2 -53 -6 -26 -9 -27 -49 -21 -23 4 -47 15 -53
24 -10 13 -6 21 23 49 41 38 64 38 77 1z m539 -145 c9 -3 17 -14 17 -25 0 -10
5 -19 10 -19 6 0 10 -9 10 -20 0 -11 -7 -20 -15 -20 -10 0 -15 -7 -13 -17 2
-13 -5 -19 -22 -21 -14 -2 -31 -11 -37 -19 -7 -9 -15 -14 -19 -11 -8 9 -75
-16 -120 -45 -22 -13 -52 -26 -69 -30 -32 -6 -115 12 -115 25 0 4 -8 8 -19 8
-23 0 -37 17 -44 55 -8 43 34 90 88 99 22 3 87 17 145 30 97 23 148 25 203 10z"/>
<path d="M1970 2821 c0 -6 5 -13 10 -16 6 -3 10 1 10 9 0 9 -4 16 -10 16 -5 0
-10 -4 -10 -9z"/>
<path d="M2003 2675 c0 -22 2 -30 4 -17 2 12 2 30 0 40 -3 9 -5 -1 -4 -23z"/>
<path d="M351 3360 c0 -43 2 -51 10 -37 7 12 8 30 1 55 -10 37 -10 37 -11 -18z"/>
</g>
</svg>
